<svg width="358" height="342" viewBox="0 0 358 342" fill="none" xmlns="http://www.w3.org/2000/svg">
<path d="M104.02 214C104.02 210.178 103.848 206.286 104.509 202.506C105.095 199.162 105.385 195.694 106.688 192.52C107.027 191.694 107.038 191.069 107.187 190.194C107.451 188.649 108.045 187.14 108.42 185.615C108.935 183.516 109.727 181.503 110.715 179.581C111.446 178.159 112.776 177.068 113.393 175.608C113.988 174.2 114.51 172.734 115.263 171.401C115.645 170.726 115.912 170.013 116.347 169.362C116.877 168.567 117.628 167.876 118.09 167.046C120.211 163.229 123.705 160.466 126.601 157.209C128.317 155.279 130.752 153.452 132.903 152.046C134.879 150.754 136.541 149.242 138.599 148.073C139.488 147.568 140.277 147.211 141.128 146.596C141.818 146.098 142.544 145.5 143.295 145.109C143.786 144.854 144.35 144.982 144.847 144.684C146.396 143.755 148.089 142.83 149.831 142.294C151.372 141.82 152.827 141.044 154.368 140.531C156.14 139.94 157.94 139.489 159.724 138.895C160.47 138.646 161.294 138.414 162.072 138.279C163.067 138.106 164.032 137.435 165.048 137.333C166.634 137.175 168.514 136.933 170.021 136.462C172.683 135.63 176.203 136.175 179 136.175" stroke="white" stroke-width="8" stroke-linecap="round"/>
<path d="M178 136C180.01 136 182.02 136 184.03 136C188.169 136 191.819 137.088 195.824 137.867C197.53 138.199 199.038 138.998 200.659 139.618C202.901 140.474 205.164 141.219 207.394 142.111C210.291 143.269 212.925 144.463 215.612 146.078C216.722 146.745 217.381 147.897 218.58 148.412C219.72 148.902 220.63 149.678 221.718 150.237C222.92 150.855 224.603 151.744 225.603 152.656C226.99 153.92 228.537 155.055 230.021 156.241C231.016 157.037 232.096 157.877 232.85 158.915C233.545 159.871 234.283 160.971 235.102 161.821C236.685 163.467 237.265 165.711 238.72 167.518C239.878 168.957 240.751 170.662 241.773 172.186C243.088 174.148 244.483 176.15 245.53 178.286C246.135 179.52 246.559 180.951 247.013 182.253C247.469 183.562 248.198 184.399 248.881 185.553C250.001 187.446 251.263 189.233 251.869 191.377C253.098 195.718 254.431 199.922 255.424 204.362C255.963 206.774 256 209.538 256 212" stroke="white" stroke-width="8" stroke-linecap="round"/>
<path d="M178.024 139C178.024 168.185 178.349 197.371 178.349 226.585C178.349 229.509 178.675 232.314 178.675 235.238C178.675 239.999 178.082 244.749 178.024 249.495C177.97 253.886 178.024 258.283 178.024 262.674C178.024 266.769 178.349 270.753 178.349 274.821C178.349 277.938 178.675 280.985 178.675 284.107C178.675 285.016 178.357 287.583 179 288" stroke="white" stroke-width="8" stroke-linecap="round"/>
<path d="M175 138C171.048 138 168.458 139.823 165.231 141.618C163.297 142.694 161.381 143.545 159.577 144.847C157.682 146.214 155.33 147.461 153.824 149.282C152.344 151.07 150.293 152.541 148.391 153.899C146.64 155.15 144.752 156.2 143.513 158.005C142.1 160.064 140.697 162.146 139.3 164.218C138.706 165.099 138.16 166.054 137.625 166.972C136.131 169.531 134.339 171.874 133.091 174.574C129.585 182.166 124.887 189.638 124.887 198.185C124.887 201.037 124 203.808 124 206.689C124 208.793 124 210.896 124 213" stroke="white" stroke-width="8" stroke-linecap="round"/>
<path d="M181 139C183.776 139 186.219 139.004 188.919 139.658C191.944 140.391 194.505 141.714 197.387 142.839C199.84 143.796 201.864 145.671 204.23 146.799C206.425 147.846 208.353 149.157 210.255 150.675C210.956 151.235 211.473 152.349 212.235 152.771C213.076 153.237 213.914 154.08 214.605 154.745C216.116 156.198 217.201 157.909 218.394 159.608C219.981 161.869 221.498 163.716 222.744 166.201C223.48 167.668 224.151 169.091 225.335 170.271C228.423 173.351 229.556 177.848 230.54 181.995C231.08 184.269 231.791 186.544 232.471 188.844C233.062 190.84 233.424 192.992 234.121 194.937C234.339 195.546 234.075 196.231 234.341 196.814C234.592 197.364 234.671 198.627 234.671 199.227C234.671 201.041 235.486 202.742 235.551 204.54C235.602 205.981 235.494 207.371 235.88 208.757C236.048 209.358 235.99 210.001 235.99 210.621C235.99 210.864 235.99 212.532 235.99 211.828" stroke="white" stroke-width="8" stroke-linecap="round"/>
<path d="M101 213.301C105.186 213.301 109.481 213.016 113.656 213.354C117.839 213.691 122.695 214.436 126.875 213.658C129.465 213.175 132.353 213.539 134.977 213.539C138.579 213.539 142.019 213.458 145.589 213.063C149.797 212.597 154.122 211.534 158.38 212.23C161.378 212.721 164.65 212.349 167.682 212.349C174.852 212.349 182.028 212.33 189.175 212.587C201.852 213.043 214.626 212.825 227.338 212.825C236.573 212.825 245.8 213.063 255 213.063" stroke="white" stroke-width="8" stroke-linecap="round"/>
<path d="M180 289C181.317 289 182.389 288.458 183.577 287.958C184.867 287.414 186.234 286.974 187.496 286.382C189.513 285.437 191.626 284.778 193.657 283.874C196.068 282.801 198.589 281.865 200.724 280.323C202.27 279.207 204.427 277.429 206.248 276.979C208.546 276.41 210.351 273.627 212.189 272.313C213.54 271.348 214.862 270.027 215.815 268.665C217.603 266.109 218.971 263.367 220.787 260.813C222.285 258.707 223.351 256.754 224.266 254.317C224.768 252.979 225.008 251.495 225.76 250.27C226.769 248.626 227.895 246.735 228.602 244.938C230.255 240.731 231.426 236.307 232.583 231.959C233.369 229.003 233.567 225.905 234.285 222.907C234.735 221.029 234.834 219.031 235.13 217.126C235.26 216.295 235.559 215.467 235.559 214.618C235.559 213.813 235.42 212.574 236 212" stroke="white" stroke-width="8" stroke-linecap="round"/>
<path d="M185 289C187.95 289 190.743 288.333 193.612 287.669C196.074 287.099 198.443 286.319 200.768 285.339C202.931 284.427 205.078 283.142 207.382 282.614C212.352 281.476 216.382 278.15 220.868 276.006C222.017 275.457 223.027 274.258 224.039 273.467C225.178 272.576 226.284 271.689 227.407 270.792C228.985 269.53 230.151 267.657 231.516 266.267C234.841 262.88 238.79 259.216 241.09 255.037C242.249 252.931 243.56 250.936 244.742 248.836C245.835 246.894 246.608 244.853 247.518 242.832C248.527 240.592 249.794 238.378 250.628 236.064C251.33 234.115 251.912 232.203 252.565 230.245C253.617 227.092 254.281 223.726 254.749 220.457C255.139 217.729 254.958 214.805 254.958 212" stroke="white" stroke-width="8" stroke-linecap="round"/>
<path d="M104 212C104 213.747 104 215.495 104 217.242C104 218.984 104.532 220.546 104.649 222.239C104.844 225.063 104.576 228.168 105.432 230.903C106.005 232.733 106.11 235.024 107.084 236.682C108.134 238.471 108.663 240.793 109.336 242.743C110.031 244.755 110.985 246.45 112.053 248.278C113.05 249.984 114.031 251.867 115.345 253.471C116.385 254.741 117.291 256.189 118.221 257.54C119.158 258.901 120.342 259.988 121.513 261.157C122.481 262.123 124.026 262.493 124.879 263.515C125.554 264.324 126.173 264.986 126.959 265.715C127.711 266.411 128.948 266.908 129.554 267.694C130.71 269.195 132.964 270.205 134.51 271.274C136.382 272.568 138.372 273.714 140.36 274.805C141.382 275.367 142.389 275.815 143.432 276.321C144.514 276.846 145.331 277.66 146.418 278.202C148.735 279.359 150.784 280.541 153.296 281.282C156.453 282.212 159.472 283.332 162.695 284.019C165.064 284.523 167.322 285.409 169.695 285.9C173.09 286.603 176.572 286.533 180 287" stroke="white" stroke-width="8" stroke-linecap="round"/>
<path d="M124.034 212C124.034 214.924 123.957 217.858 124.034 220.78C124.084 222.686 124.712 224.601 124.921 226.488C125.208 229.081 126.624 231.41 126.878 233.951C126.997 235.154 127.541 236.484 127.923 237.634C128.443 239.201 128.703 240.877 129.065 242.512C129.194 243.095 129.603 243.586 129.709 244.171C129.893 245.188 130.073 246.238 130.377 247.232C130.563 247.837 130.815 248.683 131.155 249.22C131.589 249.904 131.861 250.934 132.346 251.512C134.138 253.648 135.166 256.662 137.268 258.537C137.804 259.015 138.188 259.715 138.592 260.305C139.732 261.968 141.339 263.171 142.748 264.585C144.895 266.739 146.442 269.333 148.532 271.488C149.953 272.952 151.002 274.707 152.47 276.098C153.734 277.296 155.272 278.079 156.759 278.963C158.192 279.816 159.954 280.466 161.523 281.024C162.267 281.289 162.882 281.835 163.637 282.024C165.214 282.42 166.494 283.496 168 284" stroke="white" stroke-width="8" stroke-linecap="round"/>
<path d="M114 252.377C116.248 252.377 118.495 252.377 120.743 252.377C123.896 252.377 127.017 253 130.167 253C135.747 253 141.398 252.272 146.977 251.926C154.573 251.456 162.502 251.428 170.128 251.822C177.144 252.185 184.137 253 191.161 253C194.302 253 197.458 252.869 200.569 252.359C204.075 251.785 207.746 251.978 211.213 251.285C214.91 250.547 218.827 251.441 222.516 251.736C228.373 252.204 234.216 251.753 240 251.753" stroke="white" stroke-width="8" stroke-linecap="round"/>
<path d="M116 171C128.605 171 141.07 171 153.695 171C164.205 171 174.762 171 185.225 171C202.517 171 219.767 171 237 171" stroke="white" stroke-width="8" stroke-linecap="round"/>
<path d="M4.46998 317.01C2.4364 321.879 2.03764 326.901 2.00268 332C1.97239 336.418 5.64627 340 10.0645 340H72C76.4183 340 80.1554 336.407 79.7618 332.006C79.4364 328.369 78.6668 324.813 76.8462 321.608C75.6507 319.503 74.3372 317.464 73.1579 315.35C71.6473 312.642 68.9999 310.77 67.0108 308.407C63.9569 304.779 59.9209 301.944 56.5472 298.618C53.5395 295.653 52.5918 292.089 53.6741 287.973C54.1599 286.126 55.0253 283.86 56.0528 282.269C56.6982 281.269 57.5827 279.494 57.6296 278.29C57.8546 272.522 58.3975 266.889 54.5561 261.98C53.6356 260.803 52.5787 259.93 51.3221 259.134C50.3285 258.504 49.1027 258.003 48.008 257.579C46.667 257.06 45.6508 255.952 44.3197 255.392C42.755 254.735 40.6788 255.102 39.001 255.102C37.6461 255.102 36.1592 255.262 34.8317 255.524C32.4432 255.995 29.8517 256.9 27.8025 258.185C23.7196 260.747 21.3343 265.767 20.7733 270.438C20.3977 273.565 19.8646 276.539 19.8646 279.713C19.8646 282.128 21.1277 283.815 22.27 285.826C23.3598 287.744 23.9538 289.046 23.9538 291.254C23.9538 292.695 23.4113 294.293 22.8848 295.628C22.0842 297.657 21.206 299.132 19.4905 300.516C18.8444 301.037 17.9154 301.069 17.2721 301.635C16.6076 302.22 15.7092 302.771 14.9202 303.19C13.7695 303.801 13.1739 304.833 12.2742 305.72C11.0334 306.943 9.72766 308.059 8.61263 309.408C6.72333 311.694 5.59949 314.306 4.46998 317.01Z" fill="#3155A0" stroke="#3155A0" stroke-width="4" stroke-linecap="round"/>
<path d="M37.9539 268C37.9539 270.445 36.4134 272.508 35.4998 274.682C35.0775 275.686 34.782 276.697 34.409 277.712C34.277 278.071 34 278.596 34 278.985C34 279.255 34 279.525 34 279.795C34 280.438 35.3239 280.273 35.7118 280.273C37.5981 280.273 39.4728 280.409 41.3624 280.409C41.8976 280.409 42.4893 280.255 42.7561 280.818C43.2978 281.962 42.8624 282.81 42.1805 283.758C40.3246 286.336 37.3647 289 34 289" stroke="#E3AE48" stroke-width="4" stroke-linecap="round"/>
<path d="M29 266V271" stroke="#E3AE48" stroke-width="4" stroke-linecap="round"/>
<path d="M46 266V270" stroke="#E3AE48" stroke-width="4" stroke-linecap="round"/>
<path d="M281.438 317.01C279.431 321.879 279.037 326.901 279.003 332C278.973 336.418 282.645 340 287.064 340H348C352.418 340 356.153 336.407 355.765 332.006C355.444 328.369 354.684 324.813 352.887 321.608C351.706 319.503 350.41 317.464 349.246 315.35C347.754 312.642 345.141 310.77 343.177 308.407C340.163 304.779 336.178 301.944 332.848 298.618C329.879 295.653 328.943 292.089 330.012 287.973C330.491 286.126 331.345 283.86 332.36 282.269C332.997 281.269 333.87 279.494 333.916 278.29C334.139 272.522 334.674 266.889 330.882 261.98C329.974 260.803 328.93 259.93 327.69 259.134C326.709 258.504 325.499 258.003 324.418 257.579C323.094 257.06 322.091 255.952 320.777 255.392C319.233 254.735 317.183 255.102 315.527 255.102C314.189 255.102 312.721 255.262 311.411 255.524C309.053 255.995 306.495 256.9 304.472 258.185C300.441 260.747 298.086 265.767 297.533 270.438C297.162 273.565 296.636 276.539 296.636 279.713C296.636 282.128 297.883 283.815 299.01 285.826C300.086 287.744 300.672 289.046 300.672 291.254C300.672 292.695 300.137 294.293 299.617 295.628C298.827 297.657 297.96 299.132 296.266 300.516C295.628 301.037 294.711 301.069 294.076 301.635C293.42 302.22 292.533 302.771 291.755 303.19C290.619 303.801 290.031 304.833 289.142 305.72C287.918 306.943 286.629 308.059 285.528 309.408C283.663 311.694 282.553 314.306 281.438 317.01Z" fill="#D75E43" stroke="#D75E43" stroke-width="4" stroke-linecap="round"/>
<path d="M313.954 268C313.954 270.445 312.413 272.508 311.5 274.682C311.078 275.686 310.782 276.697 310.409 277.712C310.277 278.071 310 278.596 310 278.985C310 279.255 310 279.525 310 279.795C310 280.438 311.324 280.273 311.712 280.273C313.598 280.273 315.473 280.409 317.362 280.409C317.898 280.409 318.489 280.255 318.756 280.818C319.298 281.962 318.862 282.81 318.18 283.758C316.325 286.336 313.365 289 310 289" stroke="#3155A0" stroke-width="4" stroke-linecap="round"/>
<path d="M306 266V271" stroke="#3155A0" stroke-width="4" stroke-linecap="round"/>
<path d="M322 266V270" stroke="#3155A0" stroke-width="4" stroke-linecap="round"/>
<path d="M145.438 64.7397C143.419 69.6959 143.032 74.8087 143.002 80.0003C142.976 84.4185 146.645 88 151.064 88H212C216.418 88 220.148 84.408 219.773 80.0057C219.456 76.293 218.699 72.6621 216.887 69.3918C215.706 67.2623 214.41 65.1989 213.246 63.0602C211.754 60.3205 209.141 58.4266 207.177 56.0355C204.163 52.3645 200.178 49.4967 196.848 46.1315C193.879 43.1314 192.943 39.525 194.012 35.3612C194.491 33.4919 195.345 31.1999 196.36 29.5894C196.997 28.5777 197.87 26.7821 197.916 25.5639C198.139 19.7285 198.674 14.0288 194.882 9.06175C193.974 7.87156 192.93 6.98831 191.69 6.18255C190.709 5.54538 189.499 5.03862 188.418 4.60965C187.094 4.08417 186.091 2.96286 184.777 2.39692C183.233 1.73171 181.183 2.10367 179.527 2.10367C178.189 2.10367 176.721 2.26538 175.411 2.53022C173.053 3.0067 170.495 3.92204 168.472 5.22281C164.441 7.81445 162.086 12.894 161.533 17.6194C161.162 20.7831 160.636 23.7922 160.636 27.0035C160.636 29.4472 161.883 31.1537 163.01 33.1884C164.086 35.1295 164.672 36.4462 164.672 38.6803C164.672 40.1385 164.137 41.7551 163.617 43.1057C162.827 45.159 161.96 46.6509 160.266 48.051C159.628 48.5783 158.711 48.6111 158.076 49.184C157.42 49.7759 156.533 50.3331 155.755 50.7569C154.619 51.3749 154.031 52.4188 153.142 53.3162C151.918 54.5539 150.629 55.6835 149.528 57.0485C147.663 59.3614 146.553 62.0036 145.438 64.7397Z" fill="#E3AE48" stroke="#E3AE48" stroke-width="4" stroke-linecap="round"/>
<path d="M177.954 15C177.954 17.4448 176.413 19.5085 175.5 21.6818C175.078 22.6862 174.782 23.6966 174.409 24.7121C174.277 25.0715 174 25.5958 174 25.9848C174 26.2551 174 26.5253 174 26.7955C174 27.4376 175.324 27.2727 175.712 27.2727C177.598 27.2727 179.473 27.4091 181.362 27.4091C181.898 27.4091 182.489 27.2547 182.756 27.8182C183.298 28.9618 182.862 29.8103 182.18 30.7576C180.325 33.3356 177.365 36 174 36" stroke="#D75E43" stroke-width="4" stroke-linecap="round"/>
<path d="M170 13V18" stroke="#D75E43" stroke-width="4" stroke-linecap="round"/>
<path d="M186 14V17" stroke="#D75E43" stroke-width="4" stroke-linecap="round"/>
</svg>
