<svg width="41" height="41" viewBox="0 0 41 41" fill="none" xmlns="http://www.w3.org/2000/svg">
<circle cx="20.5" cy="20.5" r="20.5" fill="#007AFF"/>
<mask id="path-2-outside-1_988_246" maskUnits="userSpaceOnUse" x="10" y="9" width="22" height="23" fill="black">
<rect fill="white" x="10" y="9" width="22" height="23"/>
<path d="M30 28.7337C30 28.9989 29.8946 29.2533 29.7071 29.4408C29.5196 29.6283 29.2652 29.7337 29 29.7337H13C12.7348 29.7337 12.4804 29.6283 12.2929 29.4408C12.1054 29.2533 12 28.9989 12 28.7337V18.2227C11.9999 18.0703 12.0346 17.9199 12.1015 17.783C12.1684 17.6461 12.2657 17.5263 12.386 17.4327L20.386 11.2107C20.5615 11.0741 20.7776 11 21 11C21.2224 11 21.4385 11.0741 21.614 11.2107L29.614 17.4327C29.7343 17.5263 29.8316 17.6461 29.8985 17.783C29.9654 17.9199 30.0001 18.0703 30 18.2227V28.7337Z"/>
</mask>
<path d="M30 28.7337C30 28.9989 29.8946 29.2533 29.7071 29.4408C29.5196 29.6283 29.2652 29.7337 29 29.7337H13C12.7348 29.7337 12.4804 29.6283 12.2929 29.4408C12.1054 29.2533 12 28.9989 12 28.7337V18.2227C11.9999 18.0703 12.0346 17.9199 12.1015 17.783C12.1684 17.6461 12.2657 17.5263 12.386 17.4327L20.386 11.2107C20.5615 11.0741 20.7776 11 21 11C21.2224 11 21.4385 11.0741 21.614 11.2107L29.614 17.4327C29.7343 17.5263 29.8316 17.6461 29.8985 17.783C29.9654 17.9199 30.0001 18.0703 30 18.2227V28.7337Z" fill="white"/>
<path d="M12.2929 29.4408L10.8788 30.8551L10.8788 30.8552L12.2929 29.4408ZM12 18.2227L14 18.2227L14 18.2213L12 18.2227ZM12.1015 17.783L13.8985 18.661L13.8985 18.661L12.1015 17.783ZM12.386 17.4327L11.1581 15.854L11.158 15.854L12.386 17.4327ZM20.386 11.2107L21.6139 12.7894L21.614 12.7893L20.386 11.2107ZM21.614 11.2107L20.386 12.7893L20.3861 12.7894L21.614 11.2107ZM29.614 17.4327L28.3861 19.0114L28.3862 19.0114L29.614 17.4327ZM29.8985 17.783L28.1015 18.661L28.1016 18.6611L29.8985 17.783ZM30 18.2227L28 18.2214V18.2227H30ZM28 28.7337C28 28.4684 28.1054 28.2141 28.2929 28.0266L31.1213 30.855C31.6838 30.2925 32 29.5294 32 28.7337H28ZM28.2929 28.0266C28.4804 27.8391 28.7347 27.7337 29 27.7337V31.7337C29.7957 31.7337 30.5588 31.4175 31.1213 30.855L28.2929 28.0266ZM29 27.7337H13V31.7337H29V27.7337ZM13 27.7337C13.2654 27.7337 13.5196 27.8391 13.707 28.0264L10.8788 30.8552C11.4412 31.4174 12.2041 31.7337 13 31.7337V27.7337ZM13.707 28.0264C13.8947 28.2142 14 28.4686 14 28.7337H10C10 29.5292 10.316 30.2924 10.8788 30.8551L13.707 28.0264ZM14 28.7337V18.2227H10V28.7337H14ZM14 18.2213C14.0001 18.3737 13.9654 18.5241 13.8985 18.661L10.3046 16.9049C10.1038 17.3157 9.99968 17.7669 10 18.2241L14 18.2213ZM13.8985 18.661C13.8316 18.7979 13.7343 18.9177 13.614 19.0113L11.158 15.854C10.7971 16.1348 10.5052 16.4943 10.3045 16.905L13.8985 18.661ZM13.6139 19.0114L21.6139 12.7894L19.1581 9.63197L11.1581 15.854L13.6139 19.0114ZM21.614 12.7893C21.4385 12.9259 21.2224 13 21 13V9C20.3328 9 19.6846 9.22241 19.158 9.63209L21.614 12.7893ZM21 13C20.7776 13 20.5615 12.9259 20.386 12.7893L22.842 9.63209C22.3154 9.22241 21.6672 9 21 9V13ZM20.3861 12.7894L28.3861 19.0114L30.8419 15.854L22.8419 9.63197L20.3861 12.7894ZM28.3862 19.0114C28.2657 18.9178 28.1684 18.7979 28.1015 18.661L31.6955 16.905C31.4948 16.4943 31.2029 16.1347 30.8418 15.854L28.3862 19.0114ZM28.1016 18.6611C28.0345 18.5239 27.9999 18.3735 28 18.2214L32 18.224C32.0003 17.7671 31.8963 17.3159 31.6954 16.9049L28.1016 18.6611ZM28 18.2227V28.7337H32V18.2227H28Z" fill="black" mask="url(#path-2-outside-1_988_246)"/>
</svg>
