<svg width="23" height="24" viewBox="0 0 23 24" fill="none" xmlns="http://www.w3.org/2000/svg">
<mask id="path-1-outside-1_971_231" maskUnits="userSpaceOnUse" x="0.5" y="0.766602" width="22" height="23" fill="black">
<rect fill="white" x="0.5" y="0.766602" width="22" height="23"/>
<path d="M20.5 20.5003C20.5 20.7655 20.3946 21.0199 20.2071 21.2074C20.0196 21.3949 19.7652 21.5003 19.5 21.5003H3.5C3.23478 21.5003 2.98043 21.3949 2.79289 21.2074C2.60536 21.0199 2.5 20.7655 2.5 20.5003V9.9893C2.49989 9.83691 2.53462 9.68651 2.60152 9.5496C2.66842 9.41268 2.76572 9.29286 2.886 9.1993L10.886 2.9773C11.0615 2.84074 11.2776 2.7666 11.5 2.7666C11.7224 2.7666 11.9385 2.84074 12.114 2.9773L20.114 9.1993C20.2343 9.29286 20.3316 9.41268 20.3985 9.5496C20.4654 9.68651 20.5001 9.83691 20.5 9.9893V20.5003Z"/>
</mask>
<path d="M20.5 20.5003C20.5 20.7655 20.3946 21.0199 20.2071 21.2074C20.0196 21.3949 19.7652 21.5003 19.5 21.5003H3.5C3.23478 21.5003 2.98043 21.3949 2.79289 21.2074C2.60536 21.0199 2.5 20.7655 2.5 20.5003V9.9893C2.49989 9.83691 2.53462 9.68651 2.60152 9.5496C2.66842 9.41268 2.76572 9.29286 2.886 9.1993L10.886 2.9773C11.0615 2.84074 11.2776 2.7666 11.5 2.7666C11.7224 2.7666 11.9385 2.84074 12.114 2.9773L20.114 9.1993C20.2343 9.29286 20.3316 9.41268 20.3985 9.5496C20.4654 9.68651 20.5001 9.83691 20.5 9.9893V20.5003Z" fill="white"/>
<path d="M2.79289 21.2074L1.37882 22.6217L1.37882 22.6218L2.79289 21.2074ZM2.5 9.9893L4.5 9.9893L4.5 9.98791L2.5 9.9893ZM2.60152 9.5496L4.39847 10.4276L4.39849 10.4276L2.60152 9.5496ZM2.886 9.1993L1.65815 7.62057L1.65805 7.62065L2.886 9.1993ZM10.886 2.9773L12.1139 4.55602L12.114 4.5559L10.886 2.9773ZM12.114 2.9773L10.886 4.5559L10.8861 4.55602L12.114 2.9773ZM20.114 9.1993L18.8861 10.778L18.8862 10.778L20.114 9.1993ZM20.3985 9.5496L18.6015 10.4276L18.6016 10.4277L20.3985 9.5496ZM20.5 9.9893L18.5 9.98799V9.9893H20.5ZM18.5 20.5003C18.5 20.235 18.6054 19.9807 18.7929 19.7932L21.6213 22.6216C22.1838 22.0591 22.5 21.296 22.5 20.5003H18.5ZM18.7929 19.7932C18.9804 19.6057 19.2347 19.5003 19.5 19.5003V23.5003C20.2957 23.5003 21.0588 23.1841 21.6213 22.6216L18.7929 19.7932ZM19.5 19.5003H3.5V23.5003H19.5V19.5003ZM3.5 19.5003C3.76542 19.5003 4.01963 19.6058 4.20697 19.793L1.37882 22.6218C1.94123 23.184 2.70415 23.5003 3.5 23.5003V19.5003ZM4.20697 19.7931C4.39472 19.9808 4.5 20.2352 4.5 20.5003H0.5C0.5 21.2958 0.815995 22.059 1.37882 22.6217L4.20697 19.7931ZM4.5 20.5003V9.9893H0.5V20.5003H4.5ZM4.5 9.98791C4.50011 10.1403 4.46539 10.2907 4.39847 10.4276L0.804566 8.67155C0.603844 9.08233 0.499684 9.53354 0.500001 9.99069L4.5 9.98791ZM4.39849 10.4276C4.3316 10.5645 4.23429 10.6843 4.11395 10.7779L1.65805 7.62065C1.29715 7.90138 1.00523 8.26086 0.804542 8.6716L4.39849 10.4276ZM4.11385 10.778L12.1139 4.55602L9.65815 1.39857L1.65815 7.62057L4.11385 10.778ZM12.114 4.5559C11.9385 4.69247 11.7224 4.7666 11.5 4.7666V0.766602C10.8328 0.766602 10.1846 0.989011 9.65798 1.3987L12.114 4.5559ZM11.5 4.7666C11.2776 4.7666 11.0615 4.69247 10.886 4.5559L13.342 1.3987C12.8154 0.989011 12.1672 0.766602 11.5 0.766602V4.7666ZM10.8861 4.55602L18.8861 10.778L21.3419 7.62057L13.3419 1.39857L10.8861 4.55602ZM18.8862 10.778C18.7657 10.6844 18.6684 10.5645 18.6015 10.4276L22.1955 8.67159C21.9948 8.26088 21.7029 7.90134 21.3418 7.62055L18.8862 10.778ZM18.6016 10.4277C18.5345 10.2905 18.4999 10.1401 18.5 9.98799L22.5 9.99061C22.5003 9.53372 22.3963 9.08251 22.1954 8.67154L18.6016 10.4277ZM18.5 9.9893V20.5003H22.5V9.9893H18.5Z" fill="#808080" mask="url(#path-1-outside-1_971_231)"/>
</svg>
