<svg width="22" height="21" viewBox="0 0 22 21" fill="none" xmlns="http://www.w3.org/2000/svg">
<path d="M1 4L1 11C1 12.6569 2.34315 14 4 14L18 14C19.6569 14 21 12.6569 21 11L21 4C21 2.34315 19.6569 0.999999 18 0.999999L4 1C2.34315 1 1 2.34315 1 4Z" fill="white" stroke="#808080" stroke-width="2"/>
<path d="M1 16.8636L1 18.1364C1 18.5621 1.24061 18.8365 1.37642 18.9572C1.51633 19.0815 1.66479 19.1547 1.76225 19.1966C1.96489 19.2837 2.19657 19.3391 2.4069 19.3774C2.84394 19.4568 3.40665 19.5 4 19.5L18 19.5C18.5934 19.5 19.1561 19.4568 19.5931 19.3774C19.8034 19.3391 20.0351 19.2837 20.2378 19.1966C20.3352 19.1547 20.4837 19.0815 20.6236 18.9572C20.7594 18.8365 21 18.5621 21 18.1364L21 16.8636C21 16.4379 20.7594 16.1635 20.6236 16.0428C20.4837 15.9185 20.3352 15.8453 20.2378 15.8034C20.0351 15.7163 19.8034 15.6609 19.5931 15.6226C19.1561 15.5432 18.5934 15.5 18 15.5L4 15.5C3.40665 15.5 2.84394 15.5432 2.4069 15.6226C2.19657 15.6609 1.96489 15.7163 1.76225 15.8034C1.66479 15.8453 1.51633 15.9185 1.37642 16.0428C1.24061 16.1635 1 16.4379 1 16.8636Z" fill="white" stroke="#808080" stroke-width="2"/>
</svg>
